#!OML:ASF C:\ViconDB\ViconDB\414\Spring2016\041811\Spring2016.ASF
:FULLY-SPECIFIED
:DEGREES
167
root 11.5004 17.8576 -1.75095 -180.371 -6.54219 -172.898
lowerback 0.651224 1.35831 -2.35648
upperback 0.939017 1.79152 0.696966
thorax 0.502447 0.874515 2.02926
lowerneck -9.84351 -3.96572 -12.7827
upperneck 20.2953 -11.0312 23.9156
head 10.1439 -4.94749 9.44384
rclavicle 1.10325e-014 -6.83819e-014
rhumerus -85.1922 33.1881 -117.275
rradius 83.5911
rwrist 29.9216
rhand -48.4274 -1.09271
rfingers 7.12502
rthumb -21.079 -29.967
lclavicle 1.10325e-014 -6.83819e-014
lhumerus -84.5481 -42.2842 118.987
lradius 77.3302
lwrist -30.6672
lhand -45.3425 -1.41092
lfingers 7.12502
lthumb -18.1132 27.7657
rfemur 138.429 82.839 -173.587
rtibia 38.9934
rfoot -111.617 -44.7168
rtoes -8.1778
lfemur -35.1104 -0.351802 -5.2337
ltibia 43.8948
lfoot -16.3905 2.71931
ltoes -12.9622
168
root 11.5179 17.8516 -1.89278 -180.375 -6.68332 -172.58
lowerback 0.635462 1.40547 -2.5838
upperback 0.968535 1.85383 0.746133
thorax 0.529656 0.903205 2.20765
lowerneck -9.90133 -3.97626 -12.799
upperneck 20.2988 -11.1218 24.1271
head 10.1962 -4.98197 9.52225
rclavicle -4.57205e-015 -6.36111e-015
rhumerus -85.2882 33.3159 -117.335
rradius 83.2679
rwrist 30.7329
rhand -49.0576 -2.08742
rfingers 7.12502
rthumb -21.6843 -30.893
lclavicle -4.57205e-015 -6.36111e-015
lhumerus -84.5859 -42.3611 119.119
lradius 77.5586
lwrist -30.3555
lhand -45.3588 -1.65552
lfingers 7.12502
lthumb -18.1288 27.5196
rfemur 130.687 83.6757 -180.977
rtibia 38.8184
rfoot -112.556 -44.4164
rtoes -7.88548
lfemur -35.9008 -1.03669 -4.7185
ltibia 42.1985
lfoot -15.8411 2.00123
ltoes -13.3547
169
root 11.5333 17.8412 -2.03093 -180.413 -6.88458 -172.181
lowerback 0.676843 1.47208 -2.61788
upperback 0.999811 1.94106 0.710854
thorax 0.533634 0.94594 2.18943
lowerneck -9.89398 -4.04369 -12.6407
upperneck 20.2031 -11.3438 24.3729
head 10.2251 -5.07425 9.55402
rclavicle -1.06847e-014 -3.18055e-015
rhumerus -85.2759 33.2917 -117.406
rradius 83.3009
rwrist 30.173
rhand -48.98 -1.69216
rfingers 7.12502
rthumb -21.6098 -30.5064
lclavicle -1.06847e-014 -3.18055e-015
lhumerus -84.7166 -42.6605 119.199
lradius 77.8183
lwrist -30.3084
lhand -45.2703 -1.61728
lfingers 7.12502
lthumb -18.0437 27.5658
rfemur 122.286 84.1126 -188.923
rtibia 38.6007
rfoot -113.325 -44.5879
rtoes -6.18911
lfemur -36.6069 -1.93657 -4.04658
ltibia 40.5575
lfoot -15.405 1.49574
ltoes -13.5158
170
root 11.5452 17.8276 -2.17273 -180.513 -7.00566 -171.925
lowerback 0.748299 1.5359 -2.79983
upperback 1.07558 2.02243 0.714636
thorax 0.560381 0.983257 2.29399
lowerneck -9.98814 -4.05147 -12.8975
upperneck 20.1271 -11.4628 24.8934
head 10.3044 -5.12736 9.80264
rclavicle -5.18828e-014 0
rhumerus -85.3346 33.4362 -117.442
rradius 83.2511
rwrist 29.9519
rhand -49.0918 -1.82123
rfingers 7.12502
rthumb -21.7172 -30.623
lclavicle -5.18828e-014 0
lhumerus -84.5328 -42.6388 119.095
lradius 77.8721
lwrist -30.5909
lhand -45.2715 -1.6079
lfingers 7.12502
lthumb -18.0449 27.575
rfemur 112.66 84.2828 -198.276
rtibia 38.3698
rfoot -113.952 -44.6997
rtoes -4.7849
lfemur -37.129 -2.84042 -3.49141
ltibia 39.016
lfoot -15.0402 1.01946
ltoes -13.4625
171
root 11.5577 17.8214 -2.31111 -180.467 -7.11171 -171.619
lowerback 0.688664 1.59228 -2.91806
upperback 1.10108 2.09909 0.704038
thorax 0.611613 1.01952 2.35112
lowerneck -9.8901 -4.1035 -12.7658
upperneck 19.9533 -11.564 24.9807
head 10.2473 -5.17204 9.78609
rclavicle 2.09718e-014 7.95139e-015
rhumerus -85.4902 33.5774 -117.627
rradius 83.1905
rwrist 30.1393
rhand -49.2427 -2.1079
rfingers 7.12502
rthumb -21.8621 -30.8929
lclavicle 2.09718e-014 7.95139e-015
lhumerus -84.349 -42.6403 119.029
lradius 77.8851
lwrist -30.5386
lhand -45.4791 -1.59399
lfingers 7.12502
lthumb -18.2446 27.5704
rfemur 107.883 84.1231 -202.743
rtibia 38.1086
rfoot -114.048 -44.9476
rtoes -3.54546
lfemur -37.7288 -3.65798 -2.85409
ltibia 37.5521
lfoot -14.7505 0.59472
ltoes -13.6276
172
root 11.5661 17.8054 -2.4509 -180.517 -7.16652 -171.156
lowerback 0.694981 1.66763 -2.87582
upperback 1.17084 2.19804 0.753747
thorax 0.673069 1.06645 2.37901
lowerneck -9.94834 -4.13531 -12.8878
upperneck 19.7742 -11.6661 25.3684
head 10.2621 -5.21388 9.94751
rclavicle 7.7526e-015 -9.54166e-015
rhumerus -85.6443 33.7684 -117.812
rradius 83.1762
rwrist 30.0448
rhand -49.4754 -2.85091
rfingers 7.12502
rthumb -22.0855 -31.6097
lclavicle 7.7526e-015 -9.54166e-015
lhumerus -84.105 -42.6703 118.824
lradius 77.939
lwrist -30.8636
lhand -45.5559 -1.45026
lfingers 7.12502
lthumb -18.3185 27.7072
rfemur 103.589 83.7886 -206.535
rtibia 37.8516
rfoot -114.034 -45.2231
rtoes -1.89318
lfemur -38.1804 -4.43632 -2.02424
ltibia 36.1997
lfoot -14.59 0.241526
ltoes -14.0925
173
root 11.5743 17.7937 -2.59286 -180.521 -7.26736 -170.72
lowerback 0.655143 1.7055 -2.82245
upperback 1.22895 2.24886 0.768173
thorax 0.753236 1.08961 2.3661
lowerneck -9.92697 -4.12729 -12.8882
upperneck 19.5183 -11.6921 25.6863
head 10.202 -5.22082 10.061
rclavicle -7.55382e-015 -4.77083e-015
rhumerus -85.8261 33.9218 -118.083
rradius 83.1335
rwrist 29.6779
rhand -49.5836 -2.73311
rfingers 7.12502
rthumb -22.1894 -31.4795
lclavicle -7.55382e-015 -4.77083e-015
lhumerus -83.807 -42.6391 118.553
lradius 77.979
lwrist -30.9331
lhand -45.5952 -1.56449
lfingers 7.12502
lthumb -18.3563 27.5894
rfemur 101.923 83.3384 -207.752
rtibia 37.5603
rfoot -113.583 -45.456
rtoes -0.825566
lfemur -38.623 -5.39916 -1.15032
ltibia 34.955
lfoot -14.5758 0.136165
ltoes -13.9475
174
root 11.5811 17.781 -2.73436 -180.536 -7.21926 -170.367
lowerback 0.632894 1.8183 -2.8376
upperback 1.2992 2.39869 0.771564
thorax 0.827786 1.16148 2.37958
lowerneck -9.89242 -4.22317 -12.6615
upperneck 19.2716 -11.8034 25.6733
head 10.1225 -5.26023 9.97435
rclavicle -2.77305e-014 -4.92986e-014
rhumerus -85.9011 33.9821 -118.239
rradius 82.9537
rwrist 29.7582
rhand -50.0708 -3.48548
rfingers 7.12502
rthumb -22.6571 -32.1755
lclavicle -2.77305e-014 -4.92986e-014
lhumerus -83.603 -42.6934 118.405
lradius 78.1468
lwrist -30.9321
lhand -45.4642 -1.73269
lfingers 7.12502
lthumb -18.2303 27.433
rfemur 102.391 82.6779 -206.901
rtibia 37.2717
rfoot -112.935 -45.8348
rtoes 0.592836
lfemur -38.9329 -6.1134 -0.38988
ltibia 33.8314
lfoot -14.5941 -0.0473477
ltoes -13.9371
175
root 11.5824 17.7721 -2.88112 -180.544 -7.20966 -170.044
lowerback 0.516792 1.89156 -2.82139
upperback 1.39842 2.49865 0.75757
thorax 0.989747 1.20689 2.3622
lowerneck -9.8364 -4.2202 -12.8956
upperneck 18.9487 -11.8384 26.1927
head 10.0664 -5.28603 10.2165
rclavicle -1.64991e-014 2.70347e-014
rhumerus -86.0578 34.1661 -118.471
rradius 82.9037
rwrist 29.6381
rhand -50.2971 -3.66621
rfingers 7.12502
rthumb -22.8743 -32.3296
lclavicle -1.64991e-014 2.70347e-014
lhumerus -83.1226 -42.5672 118.017
lradius 77.9899
lwrist -31.3811
lhand -45.5369 -1.90301
lfingers 7.12502
lthumb -18.3002 27.2562
rfemur 102.8 82.0157 -206.179
rtibia 36.9657
rfoot -112.234 -46.2673
rtoes 2.09501
lfemur -39.1554 -6.75882 0.249274
ltibia 32.8176
lfoot -14.4887 -0.347847
ltoes -13.7666
176
root 11.5865 17.7611 -3.02907 -180.525 -7.14839 -169.772
lowerback 0.437956 2.00282 -2.95168
upperback 1.45709 2.64871 0.785307
thorax 1.07797 1.27761 2.46766
lowerneck -9.86608 -4.26123 -12.8684
upperneck 18.8379 -11.8864 26.2687
head 10.0519 -5.30074 10.2281
rclavicle -2.47487e-014 -9.54166e-015
rhumerus -86.2133 34.1874 -118.609
rradius 82.8199
rwrist 29.365
rhand -50.3689 -3.78622
rfingers 7.12502
rthumb -22.9431 -32.4411
lclavicle -2.47487e-014 -9.54166e-015
lhumerus -82.9238 -42.5809 117.878
lradius 78.1041
lwrist -31.6601
lhand -45.5418 -1.91014
lfingers 7.12502
lthumb -18.3049 27.2486
rfemur 105.199 81.1555 -203.482
rtibia 36.6669
rfoot -111.163 -46.7618
rtoes 3.62774
lfemur -39.3554 -7.26131 0.812226
ltibia 31.9217
lfoot -14.362 -0.617304
ltoes -14.1655
177
root 11.5832 17.7481 -3.18099 -180.558 -7.02603 -169.634
lowerback 0.415415 2.11886 -3.11052
upperback 1.53485 2.8038 0.729998
thorax 1.1559 1.3503 2.50236
lowerneck -9.77409 -4.32725 -12.6128
upperneck 18.5647 -11.9407 26.2191
head 9.93251 -5.31879 10.1267
rclavicle 8.74653e-015 3.33958e-014
rhumerus -86.4455 34.2337 -118.941
rradius 82.8073
rwrist 29.1633
rhand -50.5922 -4.3166
rfingers 7.12502
rthumb -23.1574 -32.9447
lclavicle 8.74653e-015 3.33958e-014
lhumerus -82.5816 -42.54 117.561
lradius 78.2558
lwrist -31.4341
lhand -45.3278 -2.21884
lfingers 7.12502
lthumb -18.099 26.9591
rfemur 107.343 80.127 -201.182
rtibia 36.3743
rfoot -110.055 -47.3972
rtoes 5.60807
lfemur -39.3612 -7.95773 1.27074
ltibia 31.1581
lfoot -14.4061 -0.680804
ltoes -14.5472
178
root 11.5766 17.7328 -3.33266 -180.521 -6.92253 -169.413
lowerback 0.332482 2.21004 -3.1798
upperback 1.58285 2.92801 0.718319
thorax 1.24079 1.40896 2.53381
lowerneck -9.75375 -4.34891 -12.6209
upperneck 18.3997 -11.9733 26.3744
head 9.89406 -5.33365 10.1781
rclavicle -3.63776e-014 -3.81667e-014
rhumerus -86.7578 34.3362 -119.214
rradius 82.8239
rwrist 29.0806
rhand -50.9091 -4.89872
rfingers 7.12502
rthumb -23.4614 -33.4883
lclavicle -3.63776e-014 -3.81667e-014
lhumerus -82.2522 -42.3721 117.195
lradius 78.4331
lwrist -31.6815
lhand -45.5014 -2.28677
lfingers 7.12502
lthumb -18.2661 26.8756
rfemur 109.496 79.1434 -198.778
rtibia 36.0997
rfoot -108.886 -48.0192
rtoes 7.45078
lfemur -39.419 -8.29815 1.64257
ltibia 30.5218
lfoot -14.2703 -0.927617
ltoes -14.5097
